<?xml version="1.0" encoding="utf-8"?>
<!-- Generator: Adobe Illustrator 25.0.0, SVG Export Plug-In . SVG Version: 6.00 Build 0)  -->
<svg version="1.1" id="Layer_1" xmlns="http://www.w3.org/2000/svg" xmlns:xlink="http://www.w3.org/1999/xlink" x="0px" y="0px"
	 viewBox="0 0 49 49" style="enable-background:new 0 0 49 49;" xml:space="preserve">
<style type="text/css">
	.st0{fill:#269B3F;}
</style>
<g>
	<path class="st0" d="M24.5,0C10.9,0,0,10.9,0,24.5S11,49,24.5,49S49,38,49,24.5S38,0,24.5,0z M39.5,17.6L21.3,35.8
		C21.2,35.9,21,36,20.8,36s-0.4-0.1-0.5-0.2L9.4,25c-0.1-0.1-0.2-0.3-0.2-0.5s0.1-0.4,0.2-0.5l3.8-3.8c0.1-0.1,0.3-0.2,0.5-0.2l0,0
		c0.2,0,0.4,0.1,0.5,0.2l6.5,6.5l13.9-13.9c0.3-0.3,0.8-0.3,1.1,0l3.8,3.8c0.1,0.1,0.2,0.3,0.2,0.5C39.8,17.3,39.7,17.5,39.5,17.6z"
		/>
</g>
</svg>
