<?xml version="1.0" encoding="utf-8"?>
<!-- Generator: Adobe Illustrator 25.0.0, SVG Export Plug-In . SVG Version: 6.00 Build 0)  -->
<svg version="1.1" id="Layer_1" xmlns="http://www.w3.org/2000/svg" xmlns:xlink="http://www.w3.org/1999/xlink" x="0px" y="0px"
	 viewBox="0 0 49.7 49.7" style="enable-background:new 0 0 49.7 49.7;" xml:space="preserve">
<style type="text/css">
	.st0{fill:#D32020;}
</style>
<g>
	<path class="st0" d="M24.9,0C11.1,0,0,11.1,0,24.9s11.1,24.9,24.9,24.9s24.9-11.1,24.9-24.9S38.6,0,24.9,0z M36.9,32.7l-4.3,4.3
		c-0.1,0.1-0.3,0.2-0.5,0.2c-0.2,0-0.4-0.1-0.5-0.2L24.7,30l-6.5,6.5c-0.1,0.1-0.3,0.2-0.5,0.2s-0.4-0.1-0.5-0.2l-4.3-4.3
		c-0.3-0.3-0.3-0.8,0-1.1l6.5-6.5l-6.5-6.5c-0.3-0.3-0.3-0.8,0-1.1l4.3-4.3c0.3-0.3,0.8-0.3,1.1,0l6.5,6.5l6.5-6.5
		c0.1-0.1,0.3-0.2,0.5-0.2c0.2,0,0.4,0.1,0.5,0.2l4.3,4.3c0.3,0.3,0.3,0.8,0,1.1L30,24.7l6.9,6.9C37.2,31.9,37.2,32.4,36.9,32.7z"/>
</g>
</svg>
