<?xml version="1.0" encoding="utf-8"?>
<!-- Generator: Adobe Illustrator 25.0.0, SVG Export Plug-In . SVG Version: 6.00 Build 0)  -->
<svg version="1.1" id="Capa_1" xmlns="http://www.w3.org/2000/svg" xmlns:xlink="http://www.w3.org/1999/xlink" x="0px" y="0px"
	 viewBox="0 0 268.8 268.8" style="enable-background:new 0 0 268.8 268.8;" xml:space="preserve">
<path d="M181.2,108.4V71.5c0-5.5-2.4-11-6.3-14.9l-42.4-41.9c-3.9-3.9-9.2-6-14.7-6H54c-14.9,0-27,12-27,27v136.9
	c0,14.9,12,27,27,27h35.9c8.1,33,38,57.8,73.5,57.8c41.6,0,75.6-34,75.6-75.6C239,146.3,214.1,116.5,181.2,108.4z M87.7,180.6h-34
	c-4.2,0-7.9-3.7-7.9-8.1V35.6c0-4.4,3.7-8.1,8.1-8.1h57.8v35.6c0,8.4,6.8,15.2,15.2,15.2h35.6v28C121.7,106.6,88.5,139.8,87.7,180.6
	z M192.9,191.4H156l6.5,6.3c3.7,3.4,3.7,9.4,0,13.1c-1.8,1.8-4.2,2.6-6.5,2.6c-2.4,0-4.7-0.8-6.5-2.6l-22.2-22.2
	c-1.6-1.6-2.6-4.2-2.6-6.5c0-2.4,0.8-4.7,2.6-6.5l22.2-22.2c3.4-3.7,9.4-3.7,13.1,0c3.7,3.4,3.7,9.4,0,13.1l-6.3,6.3h36.6
	c5.2,0,9.4,4.2,9.4,9.4C202.4,187.2,198.2,191.4,192.9,191.4z"/>
</svg>
