<?xml version="1.0" encoding="utf-8"?>
<!-- Generator: Adobe Illustrator 25.0.0, SVG Export Plug-In . SVG Version: 6.00 Build 0)  -->
<svg version="1.1" id="Capa_1" xmlns="http://www.w3.org/2000/svg" xmlns:xlink="http://www.w3.org/1999/xlink" x="0px" y="0px"
	 viewBox="0 0 99 99" style="enable-background:new 0 0 99 99;" xml:space="preserve">
<path d="M67.9,40.1V26c0-2.1-0.9-4.2-2.4-5.7l-16.2-16C47.8,2.8,45.8,2,43.7,2H19.3C13.6,2,9,6.6,9,12.3v52.3
	c0,5.7,4.6,10.3,10.3,10.3H33C36.1,87.5,47.5,97,61.1,97C77,97,90,84,90,68.1C90,54.6,80.5,43.2,67.9,40.1z M32.2,67.7h-13
	c-1.6,0-3-1.4-3-3.1V12.3c0-1.7,1.4-3.1,3.1-3.1h22.1v13.6c0,3.2,2.6,5.8,5.8,5.8h13.6v10.7C45.2,39.4,32.5,52.1,32.2,67.7z
	 M72.4,71.8H58.3l2.5,2.4c1.4,1.3,1.4,3.6,0,5c-0.7,0.7-1.6,1-2.5,1c-0.9,0-1.8-0.3-2.5-1l-8.5-8.5c-0.6-0.6-1-1.6-1-2.5
	c0-0.9,0.3-1.8,1-2.5l8.5-8.5c1.3-1.4,3.6-1.4,5,0c1.4,1.3,1.4,3.6,0,5l-2.4,2.4h14c2,0,3.6,1.6,3.6,3.6S74.4,71.8,72.4,71.8z"/>
</svg>
